<svg width="180" height="567.13633" xmlns="http://www.w3.org/2000/svg">

 <g>
  <title>background</title>
  <rect fill="none" id="canvas_background" height="402" width="582" y="-1" x="-1"/>
 </g>
 <g>
  <title>Layer 1</title>
  <polygon id="svg_24" fill="#ffb9b9" points="153.95 481.518 165.052 487.573 157.987 510.786 146.886 511.795 140.83 498.675 153.95 481.518"/>
  <polygon id="svg_25" fill="#ffb9b9" points="119.636 527.943 119.636 539.044 102.479 538.035 102.718 528.892 119.636 527.943"/>
  <polygon id="svg_26" fill="#2f2e41" points="157.987 348.297 151.932 423.991 132.756 535.007 102.479 530.97 112.571 443.166 108.534 362.427 157.987 348.297"/>
  <path id="svg_27" fill="#2f2e41" d="m77.247583,291.779611l72.66561,1.00922l8.07394,55.50842l-49.453,23.21264l-12.11093,44.40674l61.5639,65.60083l-24.22186,30.27735s-34.31432,-46.42523 -59.54543,-72.66559s-13.12018,-105.97064 -13.12018,-105.97064l16.14795,-41.37897z"/>
  <circle id="svg_28" fill="#ffb9b9" r="22.20337" cy="126.26344" cx="120.64505"/>
  <path id="svg_29" fill="#ffb9b9" d="m128.719023,141.402161l0,22.20337l-15.13867,24.22181s-23.21262,-17.15714 -18.1664,-21.19412s6.05547,-35.32355 6.05547,-35.32355l27.2496,10.09249z"/>
  <polygon id="svg_30" fill="#fff" points="128.719 159.569 143.858 177.735 137.802 303.89 90.368 302.881 82.294 192.874 92.386 164.615 99.309 155.196 111.562 173.698 128.719 159.569"/>
  <path id="svg_31" fill="#2f2e41" d="m152.940933,225.169411l11.10168,42.38828l-11.10168,42.38824l18.16639,24.22186l16.14791,-76.70257s-12.111,-62.57309 -13.1202,-69.63785s-3.02772,-8.074 -3.02772,-8.074l-8.074,1.00925l-10.09238,44.40679z"/>
  <polygon id="svg_32" fill="#2f2e41" points="72.202 241.317 65.137 254.438 63.118 276.641 67.155 301.872 53.026 325.085 38.897 261.502 54.035 179.753 60.091 179.753 72.202 241.317"/>
  <path id="svg_33" fill="#2f2e41" d="m157.987123,480.508251s14.12936,4.037 19.17564,5.0462s-3.02773,20.18488 -3.02773,20.18488s-5.0462,26.24035 -6.05546,31.28656s-8.074,22.20343 -17.15717,24.22186s-3.02772,-35.32355 -3.02772,-35.32355s-4.037,-12.1109 -4.037,-16.14789s6.05546,-2.01849 6.05546,-2.01849c16.1479,-2.01849 8.07398,-27.24957 8.07398,-27.24957z"/>
  <path id="svg_34" fill="#2f2e41" d="m124.682003,558.219981c-1.00925,6.05548 1.00926,6.05548 -15.13867,8.074s-12.11088,-11.10171 -12.11088,-11.10171a84.80035,84.80035 0 0 1 4.037,-18.16638c3.02774,-8.074 19.17564,2.01849 19.17564,2.01849s5.04616,13.12012 4.03691,19.1756z"/>
  <path id="svg_35" fill="#2f2e41" d="m101.443123,132.014501l-0.526,8.97562s-6.5124,-14.72672 -7.52165,-29.86536s16.14792,-18.16638 26.24036,-19.17563s27.24962,6.05545 27.24962,14.12943s-18.1664,6.05548 -25.23111,4.037s-10.09244,15.13867 -10.09244,15.13867l-4.037,1.00925l-6.08178,5.75102z"/>
  <polygon id="svg_36" fill="#fff" points="134.676 166.716 128.719 159.569 111.562 173.698 128.719 185.809 134.676 166.716"/>
  <polygon id="svg_37" fill="#fff" points="92.386 164.615 99.451 155.532 111.562 173.698 96.423 184.8 92.386 164.615"/>
  <path id="svg_38" fill="#2f2e41" d="m155.968643,239.298801l-4.037,38.35129l8.07393,23.21265l5.04622,22.20337s-0.00006,21.19415 -20.18489,22.20337s-37.342,-63.5824 -37.342,-63.5824s-3.02773,14.12939 -5.04622,22.20337s-36.3328,40.36981 -36.3328,40.36981s-8.07394,-1.00928 -15.13866,-17.15716s14.12942,-31.28656 14.12942,-31.28656l6.05549,-21.19416l-2.01849,-26.24035l-14.12949,-68.62864l41.88364,-21.69876l-4.5416,58.03156l15.13866,45.416l22.708,-100.4198l7.56933,5.55085l32.29583,13.12018l-14.12937,59.54538z"/>
  <polygon id="svg_39" fill="#3f3d56" points="257.738 567.136 0 567.136 0 565.03 258.12 565.03 257.738 567.136"/>
 </g>
</svg>