<svg width="550" height="450" xmlns="http://www.w3.org/2000/svg">
 <title>shared_workspace</title>

 <g>
  <title>background</title>
  <rect fill="none" id="canvas_background" height="452" width="552" y="-1" x="-1"/>
 </g>
 <g>
  <title>Layer 1</title>
  <path id="svg_1" fill="#6c63ff" d="m385.791862,370.13609c14.37595,15.42642 15.119,38.1 15.119,38.1s-22.565,-2.33763 -36.94091,-17.764s-15.119,-38.1 -15.119,-38.1s22.56495,2.33758 36.94091,17.764z"/>
  <path id="svg_2" fill="#6c63ff" d="m431.048882,394.215c-15.42642,14.376 -38.1,15.119 -38.1,15.119s2.33763,-22.56495 17.764,-36.94091s38.1,-15.119 38.1,-15.119s-2.33753,22.56491 -17.764,36.94091z"/>
  <path id="svg_3" fill="#3f3d56" d="m427.214922,440l-56.73914,0a5.8034,5.8034 0 0 1 -5.21862,-3.26461l-12.35345,-25.3932a5.8034,5.8034 0 0 1 5.21864,-8.34219l81.446,0a5.8034,5.8034 0 0 1 5.21862,8.34219l-12.35345,25.3932a5.8034,5.8034 0 0 1 -5.2186,3.26461z"/>
  <circle id="svg_4" fill="#ffb8b8" r="47.243511" cy="82.06979" cx="176.02733"/>
  <path id="svg_5" fill="#ffb8b8" d="m140.765852,105.69155s8.90094,67.09951 -4.7928,74.631s81.47795,8.21627 81.47795,8.21627s-21.22534,-58.19851 -11.63973,-76.00045l-65.04542,-6.84682z"/>
  <path id="svg_6" fill="#d0cde1" d="m286.946112,188.87826l-7.915,36.04167l-16.73591,76.25281l-0.50113,4.176l-5.77572,48.34458l-3.84186,32.11625l-2.57625,21.5736c-15.663,8.04992 -27.01516,13.60716 -27.01516,13.60716s-0.97654,-4.89549 -2.55056,-11.15941c-10.99237,3.29579 -31.33243,8.76307 -48.56947,9.85521c6.27678,6.99633 9.16139,13.56862 5.24883,18.41917c-11.8083,14.62221 -60.55768,-16.01 -77.60838,-27.43277a46.15393,46.15393 0 0 0 -0.44973,8.26194l-13.04823,-10.03512l1.29134,-23.08978l2.17793,-39.0676l2.73686,-48.99351a51.43841,51.43841 0 0 1 -2.16511,-6.44379c-3.996,-14.21107 -8.84656,-42.58827 -12.56639,-66.38474c-2.99381,-19.15154 -5.2424,-35.33494 -5.71781,-38.77849c-0.06427,-0.44972 -0.09638,-0.681 -0.09638,-0.681l72.231,-31.91713c5.13324,11.90468 29.10318,15.48315 29.10318,15.48315c19.85822,-1.36843 35.42486,-11.84041 35.42486,-11.84041l78.91909,31.69221z"/>
  <path id="svg_7" fill="#ffb8b8" d="m228.065232,407.29965s-3.05809,1.0472 -8.03067,2.53127c-10.99237,3.29579 -31.33243,8.76307 -48.56947,9.85521c-14.8407,0.95086 -27.38137,-1.33627 -29.67493,-11.01805c-0.983,-4.16313 0.41118,-7.58738 3.45,-10.40133c9.07144,-8.40973 32.76513,-11.42284 51.5569,-12.45718c5.30667,-0.28911 10.215,-0.424 14.301,-0.47541c6.93849,-0.09 11.48707,0.05141 11.48707,0.05141l0.10921,0.424l5.37089,21.49008z"/>
  <path id="svg_8" fill="#2f2e41" d="m136.725112,37.38179l-8.83338,-3.5364s18.46975,-20.33416 44.167,-18.5659l-7.22751,-7.95692s17.66676,-7.07268 33.72744,11.49321c8.44279,9.75966 18.21118,21.23169 24.30075,34.15476l9.45994,0l-3.94822,8.69355l13.8188,8.69355l-14.18358,-1.56155a48.58061,48.58061 0 0 1 0.3849,14.41987a18.65731,18.65731 0 0 1 -6.83212,12.20528l0,0s-10.955,-22.67579 -10.955,-26.21219l0,8.841s-8.83338,-7.95681 -8.83338,-13.26134l-4.81816,6.18866l-2.40908,-9.72508l-29.71221,9.72508l4.81815,-7.95682l-18.46975,2.65227l7.22751,-9.72509s-20.87883,11.49321 -21.682,21.2183c-0.80293,9.72494 -6.91426,18.94 -6.91426,18.94s-16.37381,-45.4629 6.91416,-58.72424z"/>
  <path id="svg_9" fill="#d0cde1" d="m338.297422,354.57348c-4.812,5.21672 -16.73591,13.07391 -31.19111,21.58c-5.37734,3.1609 -11.10162,6.41815 -16.9415,9.6561c-13.93482,7.72873 -28.525,15.38677 -40.56453,21.5736c-15.663,8.04992 -27.01516,13.60716 -27.01516,13.60716s-0.97654,-4.89549 -2.55056,-11.15941c-2.10723,-8.384 -5.28095,-19.22224 -8.5896,-24.02135c-0.11564,-0.16705 -0.23128,-0.32123 -0.34691,-0.47541c-0.96368,-1.26565 -1.93379,-2.00445 -2.891,-2.00445l47.8113,-29.6364l20.66133,-12.81052l-14.88568,-35.53411l-18.66965,-44.57343l11.26866,-35.85533l11.32646,-36.04167l21.22665,0s7.02845,15.3418 16.01636,36.73553c1.34275,3.19941 2.73043,6.53374 4.14384,9.97729c18.48978,44.97174 41.54103,107.77158 31.1911,118.9824z"/>
  <path id="svg_10" fill="#ffb8b8" d="m176.713922,438.1053c-11.8083,14.62221 -60.55768,-16.01 -77.60838,-27.43277c-3.7134,-2.48629 -5.92344,-4.06031 -5.92344,-4.06031l15.59879,-20.80265l4.94047,-6.58515s4.42008,2.345 10.95382,6.16115c0.23771,0.14132 0.47541,0.28268 0.71955,0.424c5.63433,3.30865 12.70775,7.63235 19.8454,12.45718c9.84882,6.66224 19.80685,14.26248 26.225,21.41938c6.27674,6.99633 9.16135,13.56862 5.24879,18.41917z"/>
  <path id="svg_11" fill="#d0cde1" d="m124.675182,385.38557a30.69786,30.69786 0 0 0 -5.20385,0.424c-14.77,2.5377 -19.12586,15.90716 -20.36579,24.863a46.15393,46.15393 0 0 0 -0.44973,8.26194l-13.04823,-10.03512l-4.75413,-3.65556c-11.44213,-3.98965 -21.63787,-11.07589 -30.478,-19.43422a153.2131,153.2131 0 0 1 -20.52639,-24.34261a214.67612,214.67612 0 0 1 -15.88148,-27.24a20.03409,20.03409 0 0 1 -0.27625,-16.99291l16.15773,-36.00951l23.61659,-52.62982q0.26016,-1.87914 0.57176,-3.67482c4.68351,-26.85455 17.23061,-38.77849 17.23061,-38.77849l9.58543,0l6.41168,38.77849l7.9664,48.17759l-5.58293,18.20715l-12.90044,42.04855l12.32869,13.38877l35.59833,38.64357z"/>
  <path id="svg_12" fill="#6c63ff" d="m135.523862,273.136l8.19442,9.56022c3.04445,-0.58046 6.22372,-1.26259 9.49825,-2.02864l-2.35359,-7.53158l5.75478,6.71392c34.69082,-8.53229 77.68983,-25.12082 77.68983,-25.12082s-46.42186,3.40385 -81.08294,-4.16863c-15.33585,-3.35046 -31.1145,4.25182 -37.4077,18.63269c-3.65786,8.35873 -3.08339,15.60054 9.88993,15.60054a85.688,85.688 0 0 0 13.07567,-1.2299l-3.25865,-10.4278z"/>
  <path id="svg_13" fill="#3f3d56" d="m322.332462,430.26736l0,3.8997a8.57062,8.57062 0 0 1 -0.58465,3.12875a8.79588,8.79588 0 0 1 -0.62316,1.2849a8.633,8.633 0 0 1 -7.42037,4.2145l-286.88763,0a8.6329,8.6329 0 0 1 -7.42033,-4.2145a8.79181,8.79181 0 0 1 -0.62316,-1.2849a8.57062,8.57062 0 0 1 -0.58465,-3.12875l0,-3.8997a8.62584,8.62584 0 0 1 8.62814,-8.62814l16.53675,0l0,-1.81816a0.35918,0.35918 0 0 1 0.35977,-0.35977l8.62818,0a0.35918,0.35918 0 0 1 0.35977,0.35977l0,1.81816l5.39016,0l0,-1.81816a0.35918,0.35918 0 0 1 0.35977,-0.35977l8.62819,0a0.35918,0.35918 0 0 1 0.35977,0.35977l0,1.81816l5.39659,0l0,-1.81816a0.35918,0.35918 0 0 1 0.35977,-0.35977l8.62814,0a0.35919,0.35919 0 0 1 0.35978,0.35977l0,1.81816l5.39019,0l0,-1.81816a0.35918,0.35918 0 0 1 0.35977,-0.35977l8.62815,0a0.35918,0.35918 0 0 1 0.35977,0.35977l0,1.81816l5.3902,0l0,-1.81816a0.35918,0.35918 0 0 1 0.35977,-0.35977l8.62821,0a0.35918,0.35918 0 0 1 0.35977,0.35977l0,1.81816l5.39662,0l0,-1.81816a0.35919,0.35919 0 0 1 0.35978,-0.35977l8.62814,0a0.35919,0.35919 0 0 1 0.35978,0.35977l0,1.81816l5.39019,0l0,-1.81816a0.35918,0.35918 0 0 1 0.35977,-0.35977l67.58612,0a0.35919,0.35919 0 0 1 0.35978,0.35977l0,1.81816l5.39658,0l0,-1.81816a0.35918,0.35918 0 0 1 0.35977,-0.35977l8.62819,0a0.36334,0.36334 0 0 1 0.35977,0.35977l0,1.81816l5.39016,0l0,-1.81816a0.35918,0.35918 0 0 1 0.35977,-0.35977l8.62815,0a0.35919,0.35919 0 0 1 0.35981,0.35977l0,1.81816l5.39015,0l0,-1.81816a0.35919,0.35919 0 0 1 0.35978,-0.35977l8.62814,0a0.35919,0.35919 0 0 1 0.35978,0.35977l0,1.81816l5.39662,0l0,-1.81816a0.35918,0.35918 0 0 1 0.35977,-0.35977l8.62815,0a0.35786,0.35786 0 0 1 0.35334,0.35977l0,1.81816l5.39663,0l0,-1.81816a0.35918,0.35918 0 0 1 0.35977,-0.35977l8.62815,0a0.35918,0.35918 0 0 1 0.35977,0.35977l0,1.81816l5.39019,0l0,-1.81816a0.35919,0.35919 0 0 1 0.35978,-0.35977l8.62814,0a0.35918,0.35918 0 0 1 0.35977,0.35977l0,1.81816l25.1649,0a8.62585,8.62585 0 0 1 8.62813,8.62814z"/>
  <path id="svg_14" fill="#3f3d56" d="m299.232562,266.0373l-106.93183,0l0,-2.204l-48.487,0l0,2.204l-107.37267,0a7.23313,7.23313 0 0 0 -7.23313,7.23314l0,146.42256a7.23315,7.23315 0 0 0 7.23313,7.23316l262.7915,0a7.23315,7.23315 0 0 0 7.23313,-7.23316l0,-146.42256a7.23313,7.23313 0 0 0 -7.23313,-7.23314z"/>
  <circle id="svg_15" stroke-width="2" stroke-miterlimit="10" stroke="#d0cde1" fill="none" r="16.06134" cy="317.15699" cx="168.04723"/>
  <circle id="svg_16" fill="#d0cde1" r="16.06134" cy="322.93907" cx="162.9076"/>
  <rect stroke="null" id="svg_40" fill="#3f3d56" height="7" width="498.999974" y="437" x="10.84535"/>
 </g>
</svg>