<svg width="1240" height="1000" xmlns="http://www.w3.org/2000/svg">
 <title>ideas</title>
 <defs>
  <filter height="200%" width="200%" y="-50%" x="-50%" id="svg_46_blur">
   <feGaussianBlur stdDeviation="0" in="SourceGraphic"/>
  </filter>
 </defs>
 <g>
  <title>background</title>
  <rect fill="none" id="canvas_background" height="1002" width="1242" y="-1" x="-1"/>
 </g>
 <g>
  <title>Layer 1</title>
  <path stroke="null" transform="rotate(-87 406.19262695312483,671.1123046874999) " id="svg_83" fill="#6c63ff" d="m568.287619,764.928195a195.442748,197.622803 0 1 0 -90.681277,73.621309a63.220273,63.925468 0 1 0 90.681277,-73.621298l0,-0.000011z"/>
  <path stroke="null" transform="rotate(-86 398.85931396484364,664.4455566406249) " id="svg_80" fill="#6c63ff" d="m552.614501,752.657862aNaN,NaN  0 0 -86.01574,69.224aNaN,NaN  0 0 86.01574,-69.22398l0,-0.00002z"/>
  <path stroke="null" transform="rotate(-5 505.5266418457033,268.4432983398436) " id="svg_75" fill="#6c63ff" d="m659.281799,356.655552a185.387251,185.81904 0 1 0 -86.015737,69.224002a59.967602,60.107277 0 1 0 86.015737,-69.223989l0,-0.000013z"/>
  <ellipse id="svg_1" fill="#3f3d56" ry="54.5" rx="308.5" cy="864.888554" cx="795.835226"/>
  <path transform="rotate(90 985.5294189453125,249.10987854003915) " stroke="null" id="svg_2" fill="#6c63ff" d="m1111.09545,318.627554a151.39878,146.43887 0 1 0 -70.24581,54.553527a48.97328,47.368887 0 1 0 70.24581,-54.553517l0,-0.00001z"/>
  <rect rx="10" stroke="null" id="svg_3" fill="none" height="28.79573" width="131.745962" y="126.637554" x="915.452919"/>
  <path transform="rotate(-86 519.974365234375,232.33634948730472) " stroke="null" id="svg_6" fill="#6c63ff" d="m375.47735,312.5888aNaN,NaN  0 0 80.83642,62.97756aNaN,NaN  0 0 -80.83642,-62.97756z"/>
  <rect id="svg_7" fill="#fff" transform="rotate(-180 2453.869873046875,660.7306518554689) " height="13.79573" width="174.74595" y="653.832787" x="2366.496874"/>
  <rect id="svg_8" fill="#fff" transform="rotate(-180 2453.869873046875,729.7093505859376) " height="13.79573" width="174.74595" y="722.811456" x="2366.496874"/>
  <rect id="svg_9" fill="#fff" transform="rotate(-180 2453.869873046875,798.6880493164064) " height="13.79573" width="174.74595" y="791.790125" x="2366.496874"/>
  <path id="svg_14" fill="#2f2e41" d="m725.771396,462.742194s42.34638,1.1513 49.34015,3.69576s10.12111,20.7396 10.12111,20.7396l-32.87919,10.33437l-24.59189,-1.393l-18.50788,1.30783l10.33421,-27.0653l6.18349,-7.61926z"/>
  <path id="svg_15" fill="#9f616a" d="m727.597976,448.847064s2.78616,10.76072 -3.39733,18.38s26.58208,34.76969 26.58208,34.76969l17.28539,-2.971s-3.8097,-33.064 1.30766,-41.43662s-41.7778,-8.74207 -41.7778,-8.74207z"/>
  <path id="svg_16" opacity="0.1" d="m727.597976,448.847064s2.78616,10.76072 -3.39733,18.38s26.58208,34.76969 26.58208,34.76969l17.28539,-2.971s-3.8097,-33.064 1.30766,-41.43662s-41.7778,-8.74207 -41.7778,-8.74207z"/>
  <polygon id="svg_17" fill="#9f616a" points="842.5552062988281,763.4663925170898 804.4162292480469,814.0433578491211 830.4442443847656,829.2394027709961 866.2662658691406,770.6303939819336 842.5552062988281,763.4663925170898 "/>
  <path id="svg_18" fill="#2f2e41" d="m815.802836,814.896364s-14.04443,-16.31874 -13.419,-12.67971s-9.993,34.49974 -0.11362,37.48486s94.60062,10.90261 95.76622,1.33594s-25.27421,-16.26185 -25.27421,-16.26185s-15.70758,-15.09625 -19.19024,-13.561s-37.76915,3.68176 -37.76915,3.68176z"/>
  <polygon id="svg_19" fill="#9f616a" points="833.9982604980469,811.7693710327148 864.4612121582031,863.6673812866211 887.4602355957031,850.3483505249023 856.7422180175781,807.8593978881836 833.9982604980469,811.7693710327148 "/>
  <path id="svg_20" fill="#2f2e41" d="m882.086866,688.297704l-9.04068,12.7935s-43.09961,59.85933 -38.52238,64.6924s23.63955,23.09926 33.33415,19.5597s44.13727,-64.72085 44.13727,-64.72085l-8.984,-35.92119l-20.92436,3.59644z"/>
  <path id="svg_21" fill="#2f2e41" d="m696.425226,676.187074s9.652,18.01033 34.116,24.10848s50.02251,18.56461 50.93227,18.40824s3.48266,-1.53523 4.10813,2.1038s7.33495,9.97889 7.33495,9.97889s27.02289,91.82859 37.343,91.92807s31.52877,-7.29237 31.96943,-10.178s-31.60014,-96.66167 -31.91287,-98.48119l-3.75291,-21.83417s42.37483,6.7662 46.32659,7.96025s39.10541,20.44101 39.10541,20.44101s35.83585,-25.82869 2.3169,-51.913s-91.13226,-45.21755 -91.13226,-45.21755l-20.66857,-5.81387l-18.01336,-1.07517l-2.65227,-10.17093l-42.66206,2.46143l-44.52122,18.89181l1.76284,48.4019z"/>
  <circle id="svg_22" fill="#9f616a" r="33.23151" cy="437.034354" cx="752.729996"/>
  <path id="svg_23" fill="#d0cde1" d="m722.665426,463.744364l3.99683,-0.687s7.21885,27.79487 29.55057,32.38624c0,0 11.01915,-13.20039 10.54876,-15.4277s8.72665,-14.111 13.61662,-7.45845s-1.19372,123.84077 2.91441,125.94457s12.92142,4.33553 5.82817,12.11113s-35.26728,18.2379 -41.50765,14.62731s-18.99129,-34.20115 -24.50673,-44.49277s-14.343,-45.30305 -14.343,-45.30305s-11.27257,-38.33772 -4.33569,-47.02309s18.23771,-24.67719 18.23771,-24.67719z"/>
  <path id="svg_24" fill="#2f2e41" d="m754.469806,608.015034a189.57234,189.57234 0 0 1 -3.80657,24.26808c-1.62981,6.508 -3.52744,10.43726 -5.693,10.26986c-5.52564,-0.413 -8.03729,7.69124 -9.33222,17.03456c-1.38419,9.91264 -1.38419,21.22057 -2.14325,25.2169c-1.00462,5.28008 -7.43445,9.30987 -20.28293,8.1266a90.65925,90.65925 0 0 1 -22.3481,-5.481c-17.34708,-6.307 -16.83363,-57.45529 -13.93125,-95.40906c1.77486,-23.26347 4.44281,-41.58172 4.44281,-41.58172s-5.26885,-15.71735 -6.95445,-26.48955a35.2107,35.2107 0 0 1 -0.50235,-5.94976c0.25673,-9.4103 17.43641,-34.83936 27.81787,-50.67949c10.39264,-15.84012 24.5695,-4.21953 24.5695,-4.21953l-4.934,14.89124s7.64654,11.79917 7.70241,23.029s18.30708,19.33411 24.85968,24.77042c4.11909,3.41587 4.01867,49.01624 0.53585,82.20345z"/>
  <path id="svg_25" fill="#2f2e41" d="m768.899606,468.442274s1.19752,1.41555 6.681,0.72495c6.5762,-0.82821 15.61831,1.4471 17.719,7.72578c3.85229,11.51411 14.71265,58.35239 14.71265,58.35239s4.52051,53.54776 6.55328,65.3746s1.02354,22.30328 3.02786,28.51521s-19.78726,-11.58514 -27.81871,-9.26808s-13.19156,-27.70493 -12.18233,-38.18136s1.8621,-21.86262 -0.92406,-32.62334s2.15346,-39.24041 1.96865,-45.76508s-17.7094,-22.96904 -9.73734,-34.85507z"/>
  <path id="svg_26" fill="#9f616a" d="m792.413226,634.868074s35.18569,19.19574 38.5531,46.51753s-47.0621,-26.45464 -47.0621,-26.45464l8.509,-20.06289z"/>
  <path id="svg_27" fill="#9f616a" d="m812.498766,615.493044s10.78165,54.34487 27.57717,51.4581s-9.382,-54.58544 -9.382,-54.58544l-18.19517,3.12734z"/>
  <path id="svg_28" fill="#2f2e41" d="m870.018816,852.409504s-8.6,9.90785 -10.73228,8.40107s-7.03635,19.00543 -2.61549,22.92875s21.45041,10.36265 21.63522,16.88731s45.85749,5.231 47.49219,-1.60642s-5.72869,-22.4312 -10.90294,-25.28839s-24.3062,-29.15464 -24.3062,-29.15464s-14.98404,2.18896 -20.5705,7.83232z"/>
  <path id="svg_29" opacity="0.1" d="m786.808626,668.104814c-8.16006,-5.76008 -30.94346,-7.1889 -51.17065,-8.51728c-8.87443,-0.56932 -17.25776,-1.12746 -23.69876,-2.03165c-6.20656,-0.85957 -11.788,-6.53033 -16.74432,-14.98063c-7.51259,-12.80379 -13.5852,-32.004 -18.26245,-50.53429c1.77486,-23.26347 4.44281,-41.58172 4.44281,-41.58172s-5.26885,-15.71735 -6.95445,-26.48955a14.17612,14.17612 0 0 1 4.48749,-4.041c21.455,-9.20938 41.93887,81.422 44.53984,95.64358c0.04469,0.23437 0.07815,0.45764 0.11167,0.64739c1.26134,7.32285 14.89124,13.58527 27.10343,16.0634c7.52376,1.52931 14.52291,1.6298 17.749,-0.35722c8.47258,-5.20187 34.52676,15.61685 36.50255,16.20852c1.97585,0.60282 -6.38514,28.26446 -18.10616,19.97045z"/>
  <path id="svg_30" fill="#2f2e41" d="m678.911906,514.349754s-15.5938,7.36339 -8.74209,41.7778s20.6546,92.92317 41.76383,95.85139s63.14288,2.26 74.87024,10.5473s20.08569,-19.375 18.10981,-19.97208s-28.032,-21.40766 -36.50407,-16.205s-42.81548,-3.88056 -44.84825,-15.70741s-22.84374,-105.65972 -44.64947,-96.292z"/>
  <path id="svg_31" fill="#2f2e41" d="m791.281146,497.845874l17.138,39.767s1.72533,-0.86074 3.72966,5.35119s2.94253,11.67048 6.45363,15.75017s19.13352,62.2757 19.60262,65.005s-21.57707,12.13832 -26.50318,4.55531s-20.42073,-130.42867 -20.42073,-130.42867z"/>
  <path id="svg_32" fill="#2f2e41" d="m733.823376,436.571784c1.27358,-0.34005 1.46068,-2.031 1.50337,-3.34847c0.22859,-7.05539 4.4771,-14.295 11.23078,-16.34894a18.88129,18.88129 0 0 1 7.95871,-0.438a30.14537,30.14537 0 0 1 10.77823,3.59581c1.759,0.98892 3.48436,2.18 5.47953,2.482c1.31767,0.1995 7.02305,1.85833 8.33513,2.09178c2.88475,0.51325 5.56568,3.09425 8.33384,2.13381c2.64832,-0.91886 3.23456,-4.34783 3.29857,-7.15029c0.14583,-6.38457 -4.70095,-15.22107 -8.97,-19.9707c-3.23965,-3.60433 -8.11764,-5.26813 -12.88608,-6.13328a85.79023,85.79023 0 0 0 -16.85259,-1.02522c-7.63115,0.1361 -15.47383,0.72511 -22.355,4.027s-12.66118,9.87349 -12.991,17.49873c-0.06871,1.58841 0.09515,3.18344 -0.0384,4.76771c-0.3258,3.86482 -2.37806,7.35567 -3.34078,11.11282a20.33478,20.33478 0 0 0 2.83974,16.25034c2.5538,3.75828 6.56761,7.15739 6.42,11.69885l5.53742,-5.73689a4.54729,4.54729 0 0 0 1.35239,-5.55565l-1.96,-7.64516a6.89794,6.89794 0 0 1 -0.16972,-4.25467c2.10108,-5.19208 4.3724,2.51537 6.49586,1.94842z"/>
  <path id="svg_33" fill="#3f3d56" d="m985.481706,818.910034c-0.22949,-0.375 -5.64062,-9.41015 -7.5166,-28.17187c-1.7207,-17.21289 -0.61426,-46.22657 14.43262,-86.69825c28.50586,-76.67089 -6.56934,-138.5332 -6.92773,-139.14941l1.73046,-1.00391c0.09082,0.15625 9.14161,15.92872 14.48829,41.04395a179.06122,179.06122 0 0 1 -7.416,99.80664c-28.457,76.54 -7.30078,112.77344 -7.084,113.13086l-1.70704,1.04199z"/>
  <circle id="svg_34" fill="#6c63ff" r="13" cy="547.388554" cx="974.335226"/>
  <circle id="svg_35" fill="#3f3d56" r="13" cy="595.388554" cx="1015.335226"/>
  <circle id="svg_36" fill="#6c63ff" r="13" cy="627.388554" cx="987.335226"/>
  <circle id="svg_37" fill="#6c63ff" r="13" cy="654.388554" cx="1021.335226"/>
  <circle id="svg_38" fill="#3f3d56" r="13" cy="696.388554" cx="977.335226"/>
  <path id="svg_39" fill="#3f3d56" d="m993.335226,819.388554s-13,-32 26,-56l-26,56z"/>
  <path id="svg_40" fill="#3f3d56" d="m977.347226,818.808084s-5.91642,-34.02934 -51.7085,-33.73768l51.7085,33.73768z"/>
  <rect stroke="null" rx="10" id="svg_44" fill="#ffffff" height="31.79573" width="161.745968" y="157.637554" x="904.452918"/>
  <rect rx="10" stroke="null" id="svg_45" fill="#fff" height="28.795726" width="180.745974" y="107.637615" x="406.11364"/>
  <text font-weight="bold" filter="url(#svg_46_blur)" stroke="null" xml:space="preserve" text-anchor="start" font-family="'League Gothic', sans-serif" font-size="24" id="svg_46" y="225.202219" x="867.046519" stroke-opacity="null" stroke-width="0" fill="#ffffff">React Js</text>
  <text font-weight="bold" filter="url(#svg_46_blur)" stroke="null" xml:space="preserve" text-anchor="start" font-family="'League Gothic', sans-serif" font-size="24" id="svg_47" y="276.138798" x="929.645098" fill-opacity="null" stroke-opacity="null" stroke-width="0" fill="#ffffff">Javascript</text>
  <text stroke="null" transform="matrix(0.918481707572937,0,0,0.9634285569190978,23.375115964561697,-78.55599625315516) " font-weight="bold" filter="url(#svg_46_blur)" xml:space="preserve" text-anchor="start" font-family="'League Gothic', sans-serif" font-size="24" id="svg_48" y="316.556724" x="1066.884501" stroke-opacity="null" stroke-width="0" fill="#ffffff">HTML/CSS</text>
  <text font-weight="bold" filter="url(#svg_46_blur)" stroke="null" xml:space="preserve" text-anchor="start" font-family="'League Gothic', sans-serif" font-size="24" id="svg_49" y="327.069237" x="950.585895" fill-opacity="null" stroke-opacity="null" stroke-width="0" fill="#ffffff">JQuery</text>
  <text font-style="italic" font-weight="bold" stroke="null" xml:space="preserve" text-anchor="start" font-family="'League Gothic', sans-serif" font-size="24" id="svg_50" y="179.728277" x="928.987806" fill-opacity="null" stroke-opacity="null" stroke-width="0" fill="#000000">Front End</text>
  <text stroke="null" font-style="italic" font-weight="bold" xml:space="preserve" text-anchor="start" font-family="'League Gothic', sans-serif" font-size="24" id="svg_53" y="129.000425" x="445.332121" fill-opacity="null" stroke-opacity="null" stroke-width="0" fill="#000000">Backend</text>
  <text font-weight="bold" filter="url(#svg_46_blur)" stroke="null" xml:space="preserve" text-anchor="start" font-family="'League Gothic', sans-serif" font-size="24" id="svg_54" y="201.202072" x="369.710263" stroke-opacity="null" stroke-width="0" fill="#ffffff">Java 8</text>
  <text style="cursor: move;" font-weight="bold" filter="url(#svg_46_blur)" stroke="null" xml:space="preserve" text-anchor="start" font-family="'League Gothic', sans-serif" font-size="24" id="svg_55" y="199.868729" x="516.37779" stroke-opacity="null" stroke-width="0" fill="#ffffff">Spring boot</text>
  <text font-weight="bold" filter="url(#svg_46_blur)" stroke="null" xml:space="preserve" text-anchor="start" font-family="'League Gothic', sans-serif" font-size="24" id="svg_56" y="281.202542" x="383.04368" stroke-opacity="null" stroke-width="0" fill="#ffffff">JPA</text>
  <text style="cursor: move;" font-weight="bold" filter="url(#svg_46_blur)" stroke="null" xml:space="preserve" text-anchor="start" font-family="'League Gothic', sans-serif" font-size="24" id="svg_57" y="307.869364" x="465.710824" stroke-opacity="null" stroke-width="0" fill="#ffffff">Junit</text>
  <text font-weight="bold" filter="url(#svg_46_blur)" stroke="null" xml:space="preserve" text-anchor="start" font-family="'League Gothic', sans-serif" font-size="24" id="svg_58" y="361.203009" x="427.043927" stroke-opacity="null" stroke-width="0" fill="#ffffff">Microservices</text>
  <text font-weight="bold" filter="url(#svg_46_blur)" stroke="null" xml:space="preserve" text-anchor="start" font-family="'League Gothic', sans-serif" font-size="24" id="svg_59" y="281.202539" x="559.044707" stroke-opacity="null" stroke-width="0" fill="#ffffff">Mockito</text>
  <path transform="rotate(-164 381.30688476562506,632.3386840820312) " stroke="null" id="svg_62" fill="#6c63ff" d="m236.809873,712.591154aNaN,NaN  0 0 80.83642,62.97756aNaN,NaN  0 0 -80.83642,-62.97756z"/>
  <text font-weight="bold" filter="url(#svg_46_blur)" stroke="null" xml:space="preserve" text-anchor="start" font-family="'League Gothic', sans-serif" font-size="24" id="svg_63" y="245.20233" x="452.37741" stroke-opacity="null" stroke-width="0" fill="#ffffff">Swagger</text>
  <rect stroke="null" rx="10" id="svg_64" fill="#fff" height="35.462435" width="214.079506" y="522.306715" x="274.112864"/>
  <text style="cursor: move;" stroke="null" font-style="italic" font-weight="bold" xml:space="preserve" text-anchor="start" font-family="'League Gothic', sans-serif" font-size="24" id="svg_65" y="547.669554" x="293.331227" fill-opacity="null" stroke-opacity="null" stroke-width="0" fill="#000000">Tools and Techs</text>
  <text font-weight="bold" filter="url(#svg_46_blur)" stroke="null" xml:space="preserve" text-anchor="start" font-family="'League Gothic', sans-serif" font-size="24" id="svg_66" y="598.80737" x="265.641206" fill-opacity="null" stroke-opacity="null" stroke-width="0" fill="#ffffff">Jira</text>
  <text font-weight="bold" filter="url(#svg_46_blur)" stroke="null" xml:space="preserve" text-anchor="start" font-family="'League Gothic', sans-serif" font-size="24" id="svg_67" y="598.80737" x="333.641602" fill-opacity="null" stroke-opacity="null" stroke-width="0" fill="#ffffff">Jenkins</text>
  <text style="cursor: move;" font-weight="bold" filter="url(#svg_46_blur)" stroke="null" xml:space="preserve" text-anchor="start" font-family="'League Gothic', sans-serif" font-size="24" id="svg_68" y="601.474053" x="453.642307" fill-opacity="null" stroke-opacity="null" stroke-width="0" fill="#ffffff">TDD</text>
  <text font-weight="bold" filter="url(#svg_46_blur)" stroke="null" xml:space="preserve" text-anchor="start" font-family="'League Gothic', sans-serif" font-size="24" id="svg_69" y="650.807677" x="226.974308" fill-opacity="null" stroke-opacity="null" stroke-width="0" fill="#ffffff">GIT</text>
  <text font-weight="bold" filter="url(#svg_46_blur)" stroke="null" xml:space="preserve" text-anchor="start" font-family="'League Gothic', sans-serif" font-size="24" id="svg_70" y="648.140995" x="341.641648" fill-opacity="null" stroke-opacity="null" stroke-width="0" fill="#ffffff">Maven</text>
  <text stroke="null" transform="matrix(1.1566990613937378,0,0,1,-45.663085859268904,0) " font-weight="bold" filter="url(#svg_46_blur)" xml:space="preserve" text-anchor="start" font-family="'League Gothic', sans-serif" font-size="24" id="svg_71" y="694.807934" x="273.864632" fill-opacity="null" stroke-opacity="null" stroke-width="0" fill="#ffffff">Tomcat</text>
  <text stroke="null" transform="matrix(1.1566990613937378,0,0,1,-45.663085859268904,0) " font-weight="bold" filter="url(#svg_46_blur)" xml:space="preserve" text-anchor="start" font-family="'League Gothic', sans-serif" font-size="24" id="svg_77" y="646.807656" x="453.687737" fill-opacity="null" stroke-opacity="null" stroke-width="0" fill="#ffffff">Agile</text>
  <text stroke="null" transform="matrix(1.1566990613937378,0,0,1,-45.663085859268904,0) " font-weight="bold" filter="url(#svg_46_blur)" xml:space="preserve" text-anchor="start" font-family="'League Gothic', sans-serif" font-size="24" id="svg_78" y="805.47525" x="284.239042" fill-opacity="null" stroke-opacity="null" stroke-width="0" fill="#ffffff">IBM Websphere</text>
  <text stroke="null" transform="matrix(1.0002443762994062,0,0,0.9611589908599855,12.151026873512372,28.563925087451935) " font-weight="bold" filter="url(#svg_46_blur)" xml:space="preserve" text-anchor="start" font-family="'League Gothic', sans-serif" font-size="24" id="svg_81" y="692.141252" x="399.658193" fill-opacity="null" stroke-opacity="null" stroke-width="0" fill="#ffffff">PL/SQL</text>
  <text stroke="null" transform="matrix(1.1566990613937378,0,0,1,-45.663085859268904,0) " font-weight="bold" filter="url(#svg_46_blur)" xml:space="preserve" text-anchor="start" font-family="'League Gothic', sans-serif" font-size="24" id="svg_82" y="745.474897" x="245.046827" fill-opacity="null" stroke-opacity="null" stroke-width="0" fill="#ffffff">Oracle</text>
  <text stroke="null" transform="matrix(0.9812118738015304,0,0,0.9212765155321636,31.771933616509635,58.905792473027404) " font-weight="bold" filter="url(#svg_46_blur)" xml:space="preserve" text-anchor="start" font-family="'League Gothic', sans-serif" font-size="24" id="svg_84" y="741.640821" x="347.966287" fill-opacity="null" stroke-opacity="null" stroke-width="0" fill="#ffffff">ORDS</text>
 </g>
</svg>